# xmcd
#
# Track frame offsets:
#	150
#	13703
#	27223
#	38518
#	51618
#	61610
#	71693
#	90480
#	101493
#	115485
#	126685
#	139580
#	151605
#	162728
#	179558
#	190093
#	200613
#	214730
#
# Disc length: 3050 seconds
#
# Revision: 0
# Processed by: cddbd v1.5.2PL0 Copyright (c) Steve Scherf et al.
# Submitted via: EZCDAudioConverter 9.1.1.1
#
DISCID=020be812
DTITLE=Ben E. King - Ben E. King Best
DYEAR=2006
DGENRE=R&B
TTITLE0=Stand By Me
TTITLE1=Spanish Harlem
TTITLE2=First Taste Of Love
TTITLE3=Moon River
TTITLE4=I Count The Tears
TTITLE5=Show Me The Way
TTITLE6=Supernatural Thing(Part 1)
TTITLE7=I(Who Have Nothing)
TTITLE8=Amor
TTITLE9=Save The Last Dance For Me
TTITLE10=It's All In The Game
TTITLE11=Dream Lover
TTITLE12=This Magic Moment
TTITLE13=On The Street Where You Live
TTITLE14=Here Comes The Night
TTITLE15=Young Boy Blues
TTITLE16=That's When It Hurts
TTITLE17=Will You Still Love Me Tomorrow
EXTD=
EXTT0=
EXTT1=
EXTT2=
EXTT3=
EXTT4=
EXTT5=
EXTT6=
EXTT7=
EXTT8=
EXTT9=
EXTT10=
EXTT11=
EXTT12=
EXTT13=
EXTT14=
EXTT15=
EXTT16=
EXTT17=
PLAYORDER=
